<svg xmlns="http://www.w3.org/2000/svg" enable-background="new 0 0 66 66" viewBox="0 0 66 66"><path d="M42.3,44.4l-2.8,2.8C37.8,49,35.4,50,33,50H33c-2.4,0-4.7-1-6.4-2.7l-2.8-2.8c-0.3,0.9-1.1,1.7-2,2l3.7,3.7
		c1.6,1.6,4,12.6,4.6,14.8h6c0.5-2.3,2.9-13.2,4.6-14.8l3.7-3.7c0.6-0.6,0.6-1.5,0-2C43.8,43.9,42.9,43.9,42.3,44.4z"/><circle cx="33" cy="45.3" r="3.5"/><path d="M40.6,15.8C39,14.1,36.6,3.2,36,1h-6c-0.5,2.3-2.9,13.2-4.6,14.8l-3.7,3.7c-1.3,1.3,0.7,3.4,2,2l2.8-2.8
		c1.7-1.7,4-2.7,6.4-2.7H33c2.4,0,4.7,0.9,6.4,2.7l2.8,2.8c0.2-0.5,0.4-0.9,0.8-1.2c0.4-0.4,0.8-0.6,1.3-0.8L40.6,15.8z"/><circle cx="33" cy="20.6" r="3.5"/><path d="M1,36c2.3,0.5,13.2,2.9,14.8,4.6l3.7,3.7c1.3,1.3,3.3-0.7,2-2l-2.8-2.9C17,37.7,16,35.4,16,33V33c0-2.4,1-4.7,2.7-6.4
		l2.8-2.8c-0.9-0.3-1.6-1-2-2l-3.7,3.7C14.2,27,3.3,29.4,1,30V36z"/><circle cx="20.6" cy="33" r="3.5"/><path d="M46.5,21.7c-1.4-1.3-3.3,0.7-2,2l2.9,2.9c1.7,1.7,2.7,4,2.7,6.4V33c0,2.4-1,4.7-2.7,6.4l-2.8,2.8c0.5,0.2,0.9,0.4,1.2,0.8
		c0.3,0.3,0.6,0.8,0.8,1.2l3.7-3.7c1.6-1.6,12.5-4,14.8-4.6v-6c-2.3-0.5-13.2-2.9-14.8-4.6L46.5,21.7z"/><circle cx="45.4" cy="33" r="3.5"/></svg>